<svg width="24" height="21" viewBox="0 0 24 21" fill="none" xmlns="http://www.w3.org/2000/svg">
<path d="M21 2.73913H17.8363L16.2807 0.406305C16.1974 0.28139 16.0845 0.17896 15.9521 0.108088C15.8197 0.0372159 15.6719 9.01686e-05 15.5217 0H8.21739C8.06723 9.01686e-05 7.9194 0.0372159 7.78702 0.108088C7.65463 0.17896 7.54176 0.28139 7.45842 0.406305L5.90168 2.73913H2.73913C2.01267 2.73913 1.31596 3.02772 0.802273 3.5414C0.288586 4.05509 0 4.7518 0 5.47826V18.2609C0 18.9873 0.288586 19.684 0.802273 20.1977C1.31596 20.7114 2.01267 21 2.73913 21H21C21.7265 21 22.4232 20.7114 22.9369 20.1977C23.4505 19.684 23.7391 18.9873 23.7391 18.2609V5.47826C23.7391 4.7518 23.4505 4.05509 22.9369 3.5414C22.4232 3.02772 21.7265 2.73913 21 2.73913ZM21.913 18.2609C21.913 18.503 21.8168 18.7353 21.6456 18.9065C21.4744 19.0777 21.2422 19.1739 21 19.1739H2.73913C2.49698 19.1739 2.26474 19.0777 2.09351 18.9065C1.92228 18.7353 1.82609 18.503 1.82609 18.2609V5.47826C1.82609 5.23611 1.92228 5.00387 2.09351 4.83264C2.26474 4.66141 2.49698 4.56522 2.73913 4.56522H6.3913C6.54166 4.56532 6.68972 4.52828 6.82232 4.4574C6.95492 4.38652 7.06797 4.28399 7.15141 4.15891L8.70587 1.82609H15.0321L16.5877 4.15891C16.6712 4.28399 16.7842 4.38652 16.9168 4.4574C17.0494 4.52828 17.1975 4.56532 17.3478 4.56522H21C21.2422 4.56522 21.4744 4.66141 21.6456 4.83264C21.8168 5.00387 21.913 5.23611 21.913 5.47826V18.2609ZM11.8696 6.3913C10.8764 6.3913 9.90546 6.68582 9.07964 7.23762C8.25382 7.78942 7.61017 8.5737 7.23008 9.49131C6.85 10.4089 6.75055 11.4186 6.94432 12.3927C7.13808 13.3669 7.61636 14.2616 8.31866 14.964C9.02096 15.6663 9.91575 16.1445 10.8899 16.3383C11.864 16.5321 12.8737 16.4326 13.7913 16.0525C14.7089 15.6724 15.4932 15.0288 16.045 14.203C16.5968 13.3772 16.8913 12.4062 16.8913 11.413C16.8898 10.0817 16.3602 8.80524 15.4188 7.86381C14.4774 6.92237 13.2009 6.39281 11.8696 6.3913ZM11.8696 14.6087C11.2375 14.6087 10.6197 14.4213 10.0942 14.0701C9.56863 13.719 9.15904 13.2199 8.91717 12.636C8.6753 12.052 8.61201 11.4095 8.73532 10.7896C8.85862 10.1697 9.16298 9.6003 9.6099 9.15338C10.0568 8.70646 10.6262 8.4021 11.2461 8.2788C11.866 8.15549 12.5086 8.21877 13.0925 8.46065C13.6764 8.70252 14.1755 9.11211 14.5267 9.63763C14.8778 10.1632 15.0652 10.781 15.0652 11.413C15.0652 12.2606 14.7285 13.0734 14.1292 13.6727C13.5299 14.272 12.7171 14.6087 11.8696 14.6087Z" fill="#00266F"/>
</svg>
