<svg width="24" height="18" viewBox="0 0 24 18" fill="none" xmlns="http://www.w3.org/2000/svg">
<path d="M21 4.46734H20.9203C20.8494 4.25282 20.731 4.05708 20.5738 3.89475C20.4167 3.73241 20.2249 3.60767 20.0128 3.52984L12.5128 0.811092C12.1815 0.691062 11.8185 0.691062 11.4872 0.811092L3.98719 3.53828C3.77508 3.61611 3.5833 3.74085 3.42616 3.90319C3.26902 4.06552 3.15058 4.26126 3.07969 4.47578H3C2.20581 4.47578 1.44402 4.79069 0.881657 5.35147C0.31929 5.91226 0.00223366 6.67315 0 7.46734L0 9.71734C0 10.513 0.316071 11.2761 0.87868 11.8387C1.44129 12.4013 2.20435 12.7173 3 12.7173H3.48094C4.09406 14.0711 5.28656 15.2598 7.01531 16.2198C8.98406 17.3148 11.0953 17.8136 11.6953 17.9355C11.8962 17.978 12.1038 17.978 12.3047 17.9355C12.9047 17.8098 15.0141 17.3148 16.9847 16.2198C18.7134 15.2598 19.9059 14.0711 20.5191 12.7173H21C21.7956 12.7173 22.5587 12.4013 23.1213 11.8387C23.6839 11.2761 24 10.513 24 9.71734V7.46734C24 6.67169 23.6839 5.90863 23.1213 5.34602C22.5587 4.78341 21.7956 4.46734 21 4.46734ZM3 11.2173C2.60218 11.2173 2.22064 11.0593 1.93934 10.778C1.65804 10.4967 1.5 10.1152 1.5 9.71734V7.46734C1.5 7.06952 1.65804 6.68799 1.93934 6.40668C2.22064 6.12538 2.60218 5.96734 3 5.96734V10.4814C3.00043 10.7275 3.01703 10.9734 3.04969 11.2173H3ZM15.75 11.2173H8.25C8.05109 11.2173 7.86032 11.1383 7.71967 10.9977C7.57902 10.857 7.5 10.6663 7.5 10.4673C7.5 10.2684 7.57902 10.0777 7.71967 9.93701C7.86032 9.79636 8.05109 9.71734 8.25 9.71734H15.75C15.9489 9.71734 16.1397 9.79636 16.2803 9.93701C16.421 10.0777 16.5 10.2684 16.5 10.4673C16.5 10.6663 16.421 10.857 16.2803 10.9977C16.1397 11.1383 15.9489 11.2173 15.75 11.2173ZM15.75 8.21734H8.25C8.05109 8.21734 7.86032 8.13832 7.71967 7.99767C7.57902 7.85702 7.5 7.66625 7.5 7.46734C7.5 7.26843 7.57902 7.07766 7.71967 6.93701C7.86032 6.79636 8.05109 6.71734 8.25 6.71734H15.75C15.9489 6.71734 16.1397 6.79636 16.2803 6.93701C16.421 7.07766 16.5 7.26843 16.5 7.46734C16.5 7.66625 16.421 7.85702 16.2803 7.99767C16.1397 8.13832 15.9489 8.21734 15.75 8.21734ZM22.5 9.71734C22.5 10.1152 22.342 10.4967 22.0607 10.778C21.7794 11.0593 21.3978 11.2173 21 11.2173H20.9503C20.983 10.9734 20.9996 10.7275 21 10.4814V5.96734C21.3978 5.96734 21.7794 6.12538 22.0607 6.40668C22.342 6.68799 22.5 7.06952 22.5 7.46734V9.71734Z" fill="#00266F"/>
</svg>
