<svg width="23" height="22" viewBox="0 0 23 22" fill="none" xmlns="http://www.w3.org/2000/svg">
<path d="M4.92857 3.19641V4.42855H4.10714C3.01786 4.42855 1.97319 4.86127 1.20295 5.63151C0.432716 6.40175 0 7.44641 0 8.5357V14.6964C0 15.4589 0.302901 16.1902 0.842068 16.7293C1.38124 17.2685 2.1125 17.5714 2.875 17.5714H4.10714V18.8036C4.10714 19.5661 4.41004 20.2973 4.94921 20.8365C5.48838 21.3757 6.21965 21.6786 6.98214 21.6786H16.0179C16.7804 21.6786 17.5116 21.3757 18.0508 20.8365C18.59 20.2973 18.8929 19.5661 18.8929 18.8036V17.5714H20.125C20.8875 17.5714 21.6188 17.2685 22.1579 16.7293C22.6971 16.1902 23 15.4589 23 14.6964V8.5357C23 7.44641 22.5673 6.40175 21.797 5.63151C21.0268 4.86127 19.9821 4.42855 18.8929 4.42855H18.0714V3.19641C18.0714 2.43391 17.7685 1.70265 17.2294 1.16348C16.6902 0.624312 15.9589 0.321411 15.1964 0.321411H7.80357C7.04107 0.321411 6.30981 0.624312 5.77064 1.16348C5.23147 1.70265 4.92857 2.43391 4.92857 3.19641ZM7.80357 1.96427H15.1964C15.5232 1.96427 15.8366 2.09408 16.0677 2.32515C16.2988 2.55623 16.4286 2.86963 16.4286 3.19641V4.42855H6.57143V3.19641C6.57143 2.86963 6.70124 2.55623 6.93231 2.32515C7.16339 2.09408 7.47679 1.96427 7.80357 1.96427ZM5.75 13.875C5.75 13.5482 5.87981 13.2348 6.11089 13.0037C6.34196 12.7727 6.65536 12.6428 6.98214 12.6428H16.0179C16.3446 12.6428 16.658 12.7727 16.8891 13.0037C17.1202 13.2348 17.25 13.5482 17.25 13.875V18.8036C17.25 19.1303 17.1202 19.4437 16.8891 19.6748C16.658 19.9059 16.3446 20.0357 16.0179 20.0357H6.98214C6.65536 20.0357 6.34196 19.9059 6.11089 19.6748C5.87981 19.4437 5.75 19.1303 5.75 18.8036V13.875Z" fill="#868686"/>
</svg>
