<svg width="47" height="54" viewBox="0 0 47 54" fill="none" xmlns="http://www.w3.org/2000/svg">
<path d="M0 15.3619C0 14.1629 0.633858 13.0533 1.66664 12.4443L21.9737 0.469496C23.0436 -0.161379 24.3729 -0.156117 25.4377 0.483209L45.3526 12.4402C46.3723 13.0525 46.9962 14.1547 46.9962 15.3442V39.0184C46.9962 40.2241 46.3553 41.3389 45.3133 41.9455L25.3988 53.54C24.3535 54.1486 23.0631 54.1536 22.0132 53.5532L1.70578 41.9411C0.650922 41.3379 0 40.2159 0 39.0008L0 15.3619Z" fill="#CCDDFF"/>
<path d="M2.11713 16.5839C2.11713 15.3755 2.76093 14.2586 3.8066 13.6529L21.8006 3.23063C22.8507 2.62243 24.1459 2.62243 25.1959 3.23063L43.19 13.6529C44.2356 14.2586 44.8794 15.3755 44.8794 16.5839V37.4473C44.8794 38.6557 44.2356 39.7726 43.19 40.3783L25.1959 50.8006C24.1459 51.4088 22.8507 51.4088 21.8006 50.8006L3.8066 40.3783C2.76092 39.7726 2.11713 38.6557 2.11713 37.4473V16.5839Z" fill="#00266F"/>
<path d="M23.2864 29.9696C23.2864 27.3684 24.7758 24.9969 27.119 23.8674L42.4503 16.4769C43.5747 15.9348 44.8792 16.7542 44.8792 18.0024V37.6609C44.8792 38.8664 44.2384 39.9811 43.1967 40.5878L25.8322 50.7002C24.7032 51.3577 23.2864 50.5433 23.2864 49.2368L23.2864 39.1841L23.2864 29.9696Z" fill="#00266F"/>
<path d="M2.11694 17.5739C2.11694 16.3212 3.42982 15.5021 4.55497 16.0527L19.7696 23.4989C22.093 24.636 23.566 26.9969 23.566 29.5835V47.0261C23.566 47.0261 23.5845 48.6864 23.9645 49.2452C24.2901 49.7242 24.5883 49.8728 24.98 50.0901C25.3716 50.3074 26.2501 50.5135 26.2501 50.5135L25.2358 51.0464C24.1977 51.5919 22.9512 51.5615 21.9409 50.9661L3.78451 40.2674C2.75121 39.6585 2.11694 38.5486 2.11694 37.3492L2.11694 17.5739Z" fill="#00266F"/>
<path fill-rule="evenodd" clip-rule="evenodd" d="M19.245 17H28.755C29.914 17 30.493 17 30.961 17.163C31.4023 17.3194 31.8015 17.5754 32.1277 17.9112C32.454 18.247 32.6984 18.6534 32.842 19.099C33 19.581 33 20.177 33 21.37V35.374C33 36.232 32.015 36.688 31.392 36.118C31.2172 35.9565 30.988 35.8668 30.75 35.8668C30.512 35.8668 30.2828 35.9565 30.108 36.118L29.625 36.56C29.3188 36.8432 28.9171 37.0004 28.5 37.0004C28.0829 37.0004 27.6812 36.8432 27.375 36.56C27.0688 36.2768 26.6671 36.1196 26.25 36.1196C25.8329 36.1196 25.4312 36.2768 25.125 36.56C24.8188 36.8432 24.4171 37.0004 24 37.0004C23.5829 37.0004 23.1812 36.8432 22.875 36.56C22.5688 36.2768 22.1671 36.1196 21.75 36.1196C21.3329 36.1196 20.9312 36.2768 20.625 36.56C20.3188 36.8432 19.9171 37.0004 19.5 37.0004C19.0829 37.0004 18.6812 36.8432 18.375 36.56L17.892 36.118C17.7172 35.9565 17.488 35.8668 17.25 35.8668C17.012 35.8668 16.7828 35.9565 16.608 36.118C15.985 36.688 15 36.232 15 35.374V21.37C15 20.177 15 19.58 15.158 19.1C15.458 18.187 16.153 17.471 17.039 17.163C17.507 17 18.086 17 19.245 17ZM19 21.75C18.8011 21.75 18.6103 21.829 18.4697 21.9697C18.329 22.1103 18.25 22.3011 18.25 22.5C18.25 22.6989 18.329 22.8897 18.4697 23.0303C18.6103 23.171 18.8011 23.25 19 23.25H19.5C19.6989 23.25 19.8897 23.171 20.0303 23.0303C20.171 22.8897 20.25 22.6989 20.25 22.5C20.25 22.3011 20.171 22.1103 20.0303 21.9697C19.8897 21.829 19.6989 21.75 19.5 21.75H19ZM22.5 21.75C22.3011 21.75 22.1103 21.829 21.9697 21.9697C21.829 22.1103 21.75 22.3011 21.75 22.5C21.75 22.6989 21.829 22.8897 21.9697 23.0303C22.1103 23.171 22.3011 23.25 22.5 23.25H29C29.1989 23.25 29.3897 23.171 29.5303 23.0303C29.671 22.8897 29.75 22.6989 29.75 22.5C29.75 22.3011 29.671 22.1103 29.5303 21.9697C29.3897 21.829 29.1989 21.75 29 21.75H22.5ZM19 25.25C18.8011 25.25 18.6103 25.329 18.4697 25.4697C18.329 25.6103 18.25 25.8011 18.25 26C18.25 26.1989 18.329 26.3897 18.4697 26.5303C18.6103 26.671 18.8011 26.75 19 26.75H19.5C19.6989 26.75 19.8897 26.671 20.0303 26.5303C20.171 26.3897 20.25 26.1989 20.25 26C20.25 25.8011 20.171 25.6103 20.0303 25.4697C19.8897 25.329 19.6989 25.25 19.5 25.25H19ZM22.5 25.25C22.3011 25.25 22.1103 25.329 21.9697 25.4697C21.829 25.6103 21.75 25.8011 21.75 26C21.75 26.1989 21.829 26.3897 21.9697 26.5303C22.1103 26.671 22.3011 26.75 22.5 26.75H29C29.1989 26.75 29.3897 26.671 29.5303 26.5303C29.671 26.3897 29.75 26.1989 29.75 26C29.75 25.8011 29.671 25.6103 29.5303 25.4697C29.3897 25.329 29.1989 25.25 29 25.25H22.5ZM19 28.75C18.8011 28.75 18.6103 28.829 18.4697 28.9697C18.329 29.1103 18.25 29.3011 18.25 29.5C18.25 29.6989 18.329 29.8897 18.4697 30.0303C18.6103 30.171 18.8011 30.25 19 30.25H19.5C19.6989 30.25 19.8897 30.171 20.0303 30.0303C20.171 29.8897 20.25 29.6989 20.25 29.5C20.25 29.3011 20.171 29.1103 20.0303 28.9697C19.8897 28.829 19.6989 28.75 19.5 28.75H19ZM22.5 28.75C22.3011 28.75 22.1103 28.829 21.9697 28.9697C21.829 29.1103 21.75 29.3011 21.75 29.5C21.75 29.6989 21.829 29.8897 21.9697 30.0303C22.1103 30.171 22.3011 30.25 22.5 30.25H29C29.1989 30.25 29.3897 30.171 29.5303 30.0303C29.671 29.8897 29.75 29.6989 29.75 29.5C29.75 29.3011 29.671 29.1103 29.5303 28.9697C29.3897 28.829 29.1989 28.75 29 28.75H22.5Z" fill="white"/>
</svg>
